<svg width="14" height="8" viewBox="0 0 14 8" fill="none" xmlns="http://www.w3.org/2000/svg">
<path d="M1.41429 1.03569L1.41428 1.03571L1.41709 1.03846L6.76709 6.26346L7.0011 6.492L7.23403 6.26235L12.584 0.987348L12.584 0.987354L12.5857 0.98569C12.6805 0.890864 12.8195 0.890865 12.9143 0.98569C13.0088 1.08024 13.0091 1.21864 12.9151 1.31345C12.9149 1.31373 12.9146 1.31401 12.9143 1.31429L7.16637 6.96223L7.16636 6.96222L7.16429 6.96429C7.06798 7.06059 7.02312 7.06665 6.99999 7.06665C6.94107 7.06665 6.89002 7.05222 6.82025 6.99909L1.08487 1.36345C0.990872 1.26865 0.991148 1.13024 1.0857 1.03569C1.18052 0.940865 1.31947 0.940865 1.41429 1.03569Z" fill="#637381" stroke="#637381" stroke-width="0.666667"/>
</svg>
