<svg width="296" height="31" viewBox="0 0 296 31" fill="none" xmlns="http://www.w3.org/2000/svg">
<path d="M143.864 1.32968C125.464 -0.143772 89.6229 2.72159 55.641 8.38211L47.6194 9.72013C25.0711 13.4874 12.8905 16.1138 4.26421 19.0692C0.897416 20.2229 0.603176 20.3768 0.635712 20.9667C0.685223 21.8275 1.22136 21.7616 7.42234 20.1329C13.839 18.4474 19.5527 17.3533 35.1814 14.8176C87.4161 6.34282 111.68 3.86532 138.609 4.25815C143.886 4.33473 152.225 5.46073 152.168 6.08897C152.092 6.9278 146.599 9.14507 133.955 13.4392C118.4 18.7218 108.895 22.3267 107.996 23.284C106.459 24.9205 107.853 26.4088 111.138 26.6407C113.015 26.7733 113.446 26.752 122.167 26.0876C147.206 24.1831 163.151 23.6144 184.668 23.859C217.436 24.232 238.226 25.4403 277.176 29.2366C291.171 30.6009 291.898 30.6406 294.545 30.1811L294.592 30.1733C295.441 30.0294 295.674 28.8793 294.874 28.5176C292.815 27.5887 291.413 27.3803 279.279 26.2053C238.603 22.2657 217.127 20.9866 185.873 20.6448C169.436 20.4647 162.095 20.5625 150.064 21.1227C141.839 21.5056 120.094 22.8911 117.035 23.2265C115.367 23.4102 122.788 20.6561 135.782 16.2705C152.219 10.722 155.54 9.07416 155.802 6.33998C156.097 3.25694 153.305 2.08555 143.864 1.32968Z" fill="#8646F4" fill-opacity="0.2"/>
</svg>
