<svg width="19" height="18" viewBox="0 0 19 18" fill="none" xmlns="http://www.w3.org/2000/svg">
<path d="M17.0278 6.83721C17.5634 6.68668 18.1255 6.99858 18.2153 7.54758C18.4986 9.28 18.2701 11.0656 17.5461 12.6809C16.6843 14.6039 15.1749 16.1635 13.2812 17.0879C11.3874 18.0123 9.22931 18.2428 7.18302 17.7394C5.13672 17.2359 3.33197 16.0303 2.08332 14.3328C0.834664 12.6352 0.221283 10.5533 0.350077 8.44994C0.47887 6.34656 1.34167 4.35506 2.78811 2.82253C4.23455 1.29 6.1729 0.313633 8.26533 0.0635829C10.0229 -0.146448 11.7955 0.167148 13.365 0.953543C13.8623 1.20275 13.9927 1.8323 13.6895 2.29871C13.3863 2.76512 12.7645 2.88992 12.2594 2.65689C11.0925 2.11862 9.79321 1.90986 8.50437 2.06388C6.8803 2.25796 5.37582 3.01578 4.25315 4.20527C3.13048 5.39476 2.4608 6.9405 2.36084 8.57307C2.26087 10.2056 2.73696 11.8215 3.70612 13.1391C4.67528 14.4567 6.07605 15.3924 7.66432 15.7832C9.25258 16.174 10.9276 15.995 12.3975 15.2775C13.8673 14.5601 15.0388 13.3495 15.7078 11.857C16.2386 10.6725 16.4263 9.36996 16.26 8.09575C16.188 7.54414 16.4923 6.98774 17.0278 6.83721Z" fill="#A78BFA"/>
</svg>
