<svg width="12" height="12" viewBox="0 0 13 14" fill="none" xmlns="http://www.w3.org/2000/svg">
<path d="M7.36685 6.99998L12.7043 1.66248C12.9012 1.4656 12.9012 1.15935 12.7043 0.962476C12.5075 0.765601 12.2012 0.765601 12.0043 0.962476L6.66685 6.29998L1.32935 0.962476C1.13247 0.765601 0.826221 0.765601 0.629346 0.962476C0.432471 1.15935 0.432471 1.4656 0.629346 1.66248L5.96685 6.99998L0.629346 12.3375C0.432471 12.5344 0.432471 12.8406 0.629346 13.0375C0.716846 13.125 0.848096 13.1906 0.979346 13.1906C1.1106 13.1906 1.24185 13.1469 1.32935 13.0375L6.66685 7.69998L12.0043 13.0375C12.0918 13.125 12.2231 13.1906 12.3543 13.1906C12.4856 13.1906 12.6168 13.1469 12.7043 13.0375C12.9012 12.8406 12.9012 12.5344 12.7043 12.3375L7.36685 6.99998Z" fill="#374151"/>
</svg>
