<svg width="228" height="16" viewBox="0 0 228 16" fill="none" xmlns="http://www.w3.org/2000/svg">
<path d="M42.0518 7.60101C45.1738 7.88101 46.7348 9.04301 46.7348 11.087C46.7348 12.333 46.1818 13.313 45.0758 14.027C43.9698 14.741 42.3178 15.098 40.1198 15.098H29.8298V0.39801H40.1198C41.9678 0.39801 43.4238 0.762011 44.4878 1.49001C45.5658 2.21801 46.1048 3.17001 46.1048 4.34601C46.1048 6.18001 44.7538 7.26501 42.0518 7.60101ZM34.1978 3.75801V6.08901H39.9098C40.4838 6.08901 40.9318 5.98401 41.2538 5.77401C41.5758 5.56401 41.7368 5.27701 41.7368 4.91301C41.7368 4.14301 41.1278 3.75801 39.9098 3.75801H34.1978ZM39.6788 11.738C40.6448 11.738 41.3308 11.647 41.7368 11.465C42.1568 11.283 42.3668 10.968 42.3668 10.52C42.3668 10.058 42.1638 9.73601 41.7578 9.55401C41.3518 9.37201 40.7288 9.28101 39.8888 9.28101H34.1978V11.738H39.6788Z" fill="white"/>
<path d="M23.142 0.39801H27.657L23.289 15.098H16.8L13.839 3.31701L10.752 15.098H4.242L0 0.39801H4.662L7.728 12.137L10.815 0.39801H16.947L19.971 12.158L23.142 0.39801Z" fill="white"/>
<path d="M223.66 15.35L217.927 9.55402H213.517V15.35H210.871V0.650024H213.517H220.762C222.4 0.650024 223.723 1.04202 224.731 1.82602C225.739 2.59602 226.243 3.70903 226.243 5.16503C226.243 6.60703 225.774 7.69202 224.836 8.42002C223.898 9.13402 222.617 9.50503 220.993 9.53303L227.041 15.35H223.66ZM213.517 2.77102V7.51702H220.636C221.546 7.51702 222.267 7.31403 222.799 6.90803C223.331 6.50203 223.597 5.92103 223.597 5.16503C223.597 4.40903 223.324 3.82102 222.778 3.40102C222.246 2.98102 221.532 2.77102 220.636 2.77102H213.517Z" fill="#FEFEFF"/>
<path d="M191.813 13.523C190.203 12.137 189.398 10.296 189.398 8.00001C189.398 5.70401 190.203 3.86301 191.813 2.47701C193.437 1.09101 195.705 0.39801 198.617 0.39801C201.529 0.39801 203.79 1.09101 205.4 2.47701C207.024 3.86301 207.836 5.70401 207.836 8.00001C207.836 10.296 207.024 12.137 205.4 13.523C203.79 14.909 201.529 15.602 198.617 15.602C195.705 15.602 193.437 14.909 191.813 13.523ZM193.766 4.09401C192.618 5.10201 192.044 6.40401 192.044 8.00001C192.044 9.59601 192.618 10.905 193.766 11.927C194.914 12.935 196.531 13.439 198.617 13.439C200.703 13.439 202.32 12.935 203.468 11.927C204.616 10.905 205.19 9.59601 205.19 8.00001C205.19 6.40401 204.616 5.10201 203.468 4.09401C202.32 3.07201 200.703 2.56101 198.617 2.56101C196.531 2.56101 194.914 3.07201 193.766 4.09401Z" fill="#FEFEFF"/>
<path d="M172.755 2.81303V0.650024H188.379V2.81303H181.89V15.35H179.244V2.81303H172.755Z" fill="#FEFEFF"/>
<path d="M171.666 15.35L169.944 11.801H160.2L158.478 15.35H155.832L163.098 0.650024H167.109L174.396 15.35H171.666ZM161.187 9.78502H168.957L165.072 1.78402L161.187 9.78502Z" fill="#FEFEFF"/>
<path d="M141.945 15.35V0.650024H144.59V13.187H154.629V15.35H141.945Z" fill="#FEFEFF"/>
<path d="M135.309 0.650024H137.955V9.32302C137.955 11.311 137.276 12.858 135.918 13.964C134.574 15.056 132.565 15.602 129.891 15.602C127.217 15.602 125.201 15.056 123.843 13.964C122.485 12.858 121.806 11.311 121.806 9.32302V0.650024H124.452V9.07102C124.452 10.485 124.9 11.57 125.796 12.326C126.706 13.068 128.071 13.439 129.891 13.439C131.697 13.439 133.048 13.068 133.944 12.326C134.854 11.57 135.309 10.485 135.309 9.07102V0.650024Z" fill="#FEFEFF"/>
<path d="M116.448 10.268L118.989 10.415C118.723 12.025 117.89 13.292 116.49 14.216C115.104 15.14 113.214 15.602 110.82 15.602C107.936 15.602 105.703 14.909 104.121 13.523C102.539 12.137 101.748 10.296 101.748 8.00001C101.748 5.70401 102.518 3.86301 104.058 2.47701C105.612 1.09101 107.789 0.39801 110.589 0.39801C112.829 0.39801 114.677 0.846011 116.133 1.74201C117.603 2.62401 118.485 3.81401 118.779 5.31201L116.238 5.48001C116.014 4.59801 115.377 3.89101 114.327 3.35901C113.291 2.82701 112.045 2.56101 110.589 2.56101C108.629 2.56101 107.103 3.07201 106.011 4.09401C104.933 5.10201 104.394 6.40401 104.394 8.00001C104.394 9.61001 104.947 10.919 106.053 11.927C107.173 12.935 108.762 13.439 110.82 13.439C112.388 13.439 113.662 13.145 114.642 12.557C115.622 11.955 116.224 11.192 116.448 10.268Z" fill="#FEFEFF"/>
<path d="M87.9474 15.35V0.650024H90.5934V13.187H100.631V15.35H87.9474Z" fill="#FEFEFF"/>
<path d="M82.806 15.35L81.084 11.801H71.34L69.618 15.35H66.972L74.238 0.650024H78.249L85.536 15.35H82.806ZM72.327 9.78502H80.097L76.212 1.78402L72.327 9.78502Z" fill="#FEFEFF"/>
<path d="M63.4348 10.268L65.9758 10.415C65.7098 12.025 64.8768 13.292 63.4768 14.216C62.0908 15.14 60.2008 15.602 57.8068 15.602C54.9228 15.602 52.6898 14.909 51.1078 13.523C49.5258 12.137 48.7348 10.296 48.7348 8.00001C48.7348 5.70401 49.5048 3.86301 51.0448 2.47701C52.5988 1.09101 54.7758 0.39801 57.5758 0.39801C59.8158 0.39801 61.6638 0.846011 63.1198 1.74201C64.5898 2.62401 65.4718 3.81401 65.7659 5.31201L63.2248 5.48001C63.0008 4.59801 62.3638 3.89101 61.3138 3.35901C60.2778 2.82701 59.0318 2.56101 57.5758 2.56101C55.6158 2.56101 54.0898 3.07201 52.9978 4.09401C51.9198 5.10201 51.3808 6.40401 51.3808 8.00001C51.3808 9.61001 51.9338 10.919 53.0398 11.927C54.1598 12.935 55.7488 13.439 57.8068 13.439C59.3748 13.439 60.6488 13.145 61.6288 12.557C62.6088 11.955 63.2108 11.192 63.4348 10.268Z" fill="#FEFEFF"/>
</svg>
