<svg width="9" height="16" viewBox="0 0 9 16" fill="none" xmlns="http://www.w3.org/2000/svg">
<path d="M7.66668 6.4H6.42685H5.98405V5.88387V4.28387V3.76774H6.42685H7.35672C7.60026 3.76774 7.79952 3.56129 7.79952 3.25161V0.516129C7.79952 0.232258 7.6224 0 7.35672 0H5.74051C3.99145 0 2.77375 1.44516 2.77375 3.5871V5.83226V6.34839H2.33096H0.82544C0.51548 6.34839 0.227661 6.63226 0.227661 7.04516V8.90323C0.227661 9.26452 0.4712 9.6 0.82544 9.6H2.28668H2.72948V10.1161V15.3032C2.72948 15.6645 2.97301 16 3.32725 16H5.40841C5.54125 16 5.65195 15.9226 5.74051 15.8194C5.82907 15.7161 5.89549 15.5355 5.89549 15.3806V10.1419V9.62581H6.36043H7.35672C7.64454 9.62581 7.86594 9.41935 7.91022 9.10968V9.08387V9.05806L8.22018 7.27742C8.24232 7.09677 8.22018 6.89032 8.08734 6.68387C8.04306 6.55484 7.8438 6.42581 7.66668 6.4Z" fill="white"/>
</svg>
