<svg width="228" height="16" viewBox="0 0 228 16" fill="none" xmlns="http://www.w3.org/2000/svg">
<path d="M42.0518 7.60095C45.1738 7.88095 46.7348 9.04295 46.7348 11.087C46.7348 12.333 46.1818 13.313 45.0758 14.027C43.9698 14.741 42.3178 15.0979 40.1198 15.0979H29.8298V0.397949H40.1198C41.9678 0.397949 43.4238 0.76195 44.4878 1.48995C45.5658 2.21795 46.1048 3.16995 46.1048 4.34595C46.1048 6.17995 44.7538 7.26495 42.0518 7.60095ZM34.1978 3.75795V6.08895H39.9098C40.4838 6.08895 40.9318 5.98395 41.2538 5.77395C41.5758 5.56395 41.7368 5.27695 41.7368 4.91295C41.7368 4.14295 41.1278 3.75795 39.9098 3.75795H34.1978ZM39.6788 11.7379C40.6448 11.7379 41.3308 11.647 41.7368 11.465C42.1568 11.283 42.3668 10.9679 42.3668 10.5199C42.3668 10.0579 42.1638 9.73595 41.7578 9.55395C41.3518 9.37195 40.7288 9.28095 39.8888 9.28095H34.1978V11.7379H39.6788Z" fill="#374151"/>
<path d="M23.142 0.397949H27.657L23.289 15.0979H16.8L13.839 3.31695L10.752 15.0979H4.242L0 0.397949H4.662L7.728 12.1369L10.815 0.397949H16.947L19.971 12.1579L23.142 0.397949Z" fill="#374151"/>
<path d="M223.66 15.3499L217.927 9.5539H213.517V15.3499H210.871V0.649902H213.517H220.762C222.4 0.649902 223.723 1.0419 224.731 1.8259C225.739 2.5959 226.243 3.7089 226.243 5.1649C226.243 6.6069 225.774 7.6919 224.836 8.4199C223.898 9.1339 222.617 9.5049 220.993 9.5329L227.041 15.3499H223.66ZM213.517 2.7709V7.5169H220.636C221.546 7.5169 222.267 7.3139 222.799 6.9079C223.331 6.5019 223.597 5.9209 223.597 5.1649C223.597 4.4089 223.324 3.8209 222.778 3.4009C222.246 2.9809 221.532 2.7709 220.636 2.7709H213.517Z" fill="#6B7280"/>
<path d="M191.813 13.523C190.203 12.137 189.398 10.2959 189.398 7.99995C189.398 5.70395 190.203 3.86295 191.813 2.47695C193.437 1.09095 195.705 0.397949 198.617 0.397949C201.529 0.397949 203.79 1.09095 205.4 2.47695C207.024 3.86295 207.836 5.70395 207.836 7.99995C207.836 10.2959 207.024 12.137 205.4 13.523C203.79 14.9089 201.529 15.602 198.617 15.602C195.705 15.602 193.437 14.9089 191.813 13.523ZM193.766 4.09395C192.618 5.10195 192.044 6.40395 192.044 7.99995C192.044 9.59595 192.618 10.9049 193.766 11.9269C194.914 12.9349 196.531 13.439 198.617 13.439C200.703 13.439 202.32 12.9349 203.468 11.9269C204.616 10.9049 205.19 9.59595 205.19 7.99995C205.19 6.40395 204.616 5.10195 203.468 4.09395C202.32 3.07195 200.703 2.56095 198.617 2.56095C196.531 2.56095 194.914 3.07195 193.766 4.09395Z" fill="#6B7280"/>
<path d="M172.755 2.8129V0.649902H188.379V2.8129H181.89V15.3499H179.244V2.8129H172.755Z" fill="#6B7280"/>
<path d="M171.666 15.3499L169.944 11.8009H160.2L158.478 15.3499H155.832L163.098 0.649902H167.109L174.396 15.3499H171.666ZM161.187 9.7849H168.957L165.072 1.7839L161.187 9.7849Z" fill="#6B7280"/>
<path d="M141.945 15.3499V0.649902H144.59V13.1869H154.629V15.3499H141.945Z" fill="#6B7280"/>
<path d="M135.309 0.649902H137.955V9.3229C137.955 11.3109 137.276 12.8579 135.918 13.9639C134.574 15.0559 132.565 15.6019 129.891 15.6019C127.217 15.6019 125.201 15.0559 123.843 13.9639C122.485 12.8579 121.806 11.3109 121.806 9.3229V0.649902H124.452V9.0709C124.452 10.4849 124.9 11.5699 125.796 12.3259C126.706 13.0679 128.071 13.4389 129.891 13.4389C131.697 13.4389 133.048 13.0679 133.944 12.3259C134.854 11.5699 135.309 10.4849 135.309 9.0709V0.649902Z" fill="#6B7280"/>
<path d="M116.448 10.2679L118.989 10.415C118.723 12.025 117.89 13.2919 116.49 14.2159C115.104 15.1399 113.214 15.602 110.82 15.602C107.936 15.602 105.703 14.9089 104.121 13.523C102.539 12.137 101.748 10.2959 101.748 7.99995C101.748 5.70395 102.518 3.86295 104.058 2.47695C105.612 1.09095 107.789 0.397949 110.589 0.397949C112.829 0.397949 114.677 0.84595 116.133 1.74195C117.603 2.62395 118.485 3.81395 118.779 5.31195L116.238 5.47995C116.014 4.59795 115.377 3.89095 114.327 3.35895C113.291 2.82695 112.045 2.56095 110.589 2.56095C108.629 2.56095 107.103 3.07195 106.011 4.09395C104.933 5.10195 104.394 6.40395 104.394 7.99995C104.394 9.60995 104.947 10.9189 106.053 11.9269C107.173 12.9349 108.762 13.439 110.82 13.439C112.388 13.439 113.662 13.145 114.642 12.557C115.622 11.955 116.224 11.1919 116.448 10.2679Z" fill="#6B7280"/>
<path d="M87.9474 15.3499V0.649902H90.5934V13.1869H100.631V15.3499H87.9474Z" fill="#6B7280"/>
<path d="M82.806 15.3499L81.084 11.8009H71.34L69.618 15.3499H66.972L74.238 0.649902H78.249L85.536 15.3499H82.806ZM72.327 9.7849H80.097L76.212 1.7839L72.327 9.7849Z" fill="#6B7280"/>
<path d="M63.4348 10.2679L65.9758 10.415C65.7098 12.025 64.8768 13.2919 63.4768 14.2159C62.0908 15.1399 60.2008 15.602 57.8068 15.602C54.9228 15.602 52.6898 14.9089 51.1078 13.523C49.5258 12.137 48.7348 10.2959 48.7348 7.99995C48.7348 5.70395 49.5048 3.86295 51.0448 2.47695C52.5988 1.09095 54.7758 0.397949 57.5758 0.397949C59.8158 0.397949 61.6638 0.84595 63.1198 1.74195C64.5898 2.62395 65.4718 3.81395 65.7659 5.31195L63.2248 5.47995C63.0008 4.59795 62.3638 3.89095 61.3138 3.35895C60.2778 2.82695 59.0318 2.56095 57.5758 2.56095C55.6158 2.56095 54.0898 3.07195 52.9978 4.09395C51.9198 5.10195 51.3808 6.40395 51.3808 7.99995C51.3808 9.60995 51.9338 10.9189 53.0398 11.9269C54.1598 12.9349 55.7488 13.439 57.8068 13.439C59.3748 13.439 60.6488 13.145 61.6288 12.557C62.6088 11.955 63.2108 11.1919 63.4348 10.2679Z" fill="#6B7280"/>
</svg>
