<svg width="15" height="14" viewBox="0 0 15 14" fill="none" xmlns="http://www.w3.org/2000/svg">
<path d="M13.2491 0H1.2485C0.681368 0 0.227661 0.451613 0.227661 1.01613V12.9839C0.227661 13.5258 0.681368 14 1.2485 14H13.2037C13.7708 14 14.2245 13.5484 14.2245 12.9839V0.993548C14.2699 0.451613 13.8162 0 13.2491 0ZM4.37908 11.9H2.31471V5.23871H4.37908V11.9ZM3.33556 4.3129C2.65499 4.3129 2.13323 3.77097 2.13323 3.11613C2.13323 2.46129 2.67768 1.91935 3.33556 1.91935C3.99343 1.91935 4.53788 2.46129 4.53788 3.11613C4.53788 3.77097 4.0388 4.3129 3.33556 4.3129ZM12.2055 11.9H10.1412V8.67097C10.1412 7.90323 10.1185 6.8871 9.05227 6.8871C7.96337 6.8871 7.80457 7.74516 7.80457 8.60323V11.9H5.7402V5.23871H7.7592V6.16452H7.78189C8.0768 5.62258 8.73467 5.08065 9.75551 5.08065C11.8653 5.08065 12.2509 6.43548 12.2509 8.2871V11.9H12.2055Z" fill="#212B36"/>
</svg>
