<svg width="39" height="12" viewBox="0 0 39 12" fill="none" xmlns="http://www.w3.org/2000/svg">
<path d="M35.1772 5.88C37.7257 6.10857 39 7.05714 39 8.72571C39 9.74286 38.5486 10.5429 37.6457 11.1257C36.7429 11.7086 35.3943 12 33.6 12H25.2V0H33.6C35.1086 0 36.2972 0.297143 37.1657 0.891429C38.0457 1.48571 38.4857 2.26286 38.4857 3.22286C38.4857 4.72 37.3829 5.60571 35.1772 5.88ZM28.7657 2.74286V4.64571H33.4286C33.8972 4.64571 34.2629 4.56 34.5257 4.38857C34.7886 4.21714 34.92 3.98286 34.92 3.68572C34.92 3.05714 34.4229 2.74286 33.4286 2.74286H28.7657ZM33.24 9.25714C34.0286 9.25714 34.5886 9.18286 34.92 9.03429C35.2629 8.88572 35.4343 8.62857 35.4343 8.26286C35.4343 7.88571 35.2686 7.62286 34.9372 7.47429C34.6057 7.32571 34.0972 7.25143 33.4114 7.25143H28.7657V9.25714H33.24Z" fill="#8646F4"/>
<path d="M19.7405 0H23.4263L19.8605 12H14.5634L12.1463 2.38286L9.62626 12H4.31198L0.849121 0H4.65484L7.15769 9.58286L9.67769 0H14.6834L17.152 9.6L19.7405 0Z" fill="#8646F4"/>
</svg>
