<svg width="16" height="16" viewBox="0 0 16 16" fill="none" xmlns="http://www.w3.org/2000/svg">
<path fill-rule="evenodd" clip-rule="evenodd" d="M8.05409 1.67267C8.18311 1.9016 8.16561 2.18495 8.00942 2.39626C7.43994 3.1667 7.1659 4.11595 7.23715 5.07136C7.3084 6.02676 7.72019 6.92487 8.39765 7.60232C9.0751 8.27977 9.9732 8.69157 10.9286 8.76281C11.884 8.83406 12.8333 8.56003 13.6037 7.99055C13.815 7.83435 14.0984 7.81686 14.3273 7.94587C14.5562 8.07489 14.688 8.32634 14.6638 8.588C14.5473 9.8489 14.0741 11.0505 13.2996 12.0523C12.525 13.0541 11.4812 13.8145 10.2903 14.2447C9.09931 14.6749 7.81047 14.757 6.57455 14.4814C5.33864 14.2058 4.20677 13.584 3.31139 12.6886C2.416 11.7932 1.79414 10.6613 1.51856 9.42541C1.24298 8.1895 1.32508 6.90066 1.75526 5.70971C2.18545 4.51875 2.94591 3.47494 3.94767 2.70041C4.94944 1.92589 6.15107 1.45268 7.41196 1.33615C7.67362 1.31197 7.92507 1.44375 8.05409 1.67267ZM6.2109 2.95936C5.69249 3.14693 5.20371 3.41467 4.76323 3.75524C3.96181 4.37486 3.35344 5.20991 3.0093 6.16267C2.66515 7.11543 2.59947 8.1465 2.81993 9.13523C3.0404 10.124 3.53789 11.0295 4.2542 11.7458C4.9705 12.4621 5.876 12.9596 6.86473 13.18C7.85346 13.4005 8.88453 13.3348 9.83729 12.9907C10.7901 12.6465 11.6251 12.0382 12.2447 11.2367C12.5853 10.7963 12.853 10.3075 13.0406 9.78907C12.3385 10.0431 11.5854 10.1488 10.8295 10.0925C9.55558 9.99746 8.35811 9.4484 7.45484 8.54513C6.55157 7.64186 6.0025 6.44439 5.90751 5.17051C5.85113 4.41453 5.95689 3.66145 6.2109 2.95936Z" fill="#F9FAFB"/>
</svg>
