<svg width="19" height="21" viewBox="0 0 19 21" fill="none" xmlns="http://www.w3.org/2000/svg">
<path d="M17.8076 12.017C17.741 11.2517 17.1088 10.7192 16.3434 10.7192H2.16795C1.40261 10.7192 0.803643 11.2849 0.703816 12.017L0.00502514 19.0049C-0.0282506 19.4042 0.104853 19.8368 0.371059 20.1363C0.637265 20.4358 1.03657 20.6021 1.46916 20.6021H17.0755C17.4748 20.6021 17.8741 20.4358 18.1736 20.1363C18.4398 19.8368 18.5729 19.4375 18.5396 19.0049L17.8076 12.017ZM17.2751 19.3709C17.2419 19.4042 17.1753 19.4708 17.0422 19.4708H1.46916C1.36933 19.4708 1.2695 19.4042 1.23623 19.3709C1.20295 19.3377 1.1364 19.2711 1.16968 19.138L1.86847 12.1168C1.86847 11.9504 2.00157 11.8506 2.16795 11.8506H16.3767C16.5431 11.8506 16.6429 11.9504 16.6762 12.1168L17.375 19.138C17.3417 19.2378 17.3084 19.3377 17.2751 19.3709Z" fill="#8646F4"/>
<path d="M9.25676 13.3147C7.95901 13.3147 6.92746 14.3462 6.92746 15.644C6.92746 16.9418 7.95901 17.9733 9.25676 17.9733C10.5545 17.9733 11.5861 16.9418 11.5861 15.644C11.5861 14.3462 10.5545 13.3147 9.25676 13.3147ZM9.25676 16.8087C8.62452 16.8087 8.09211 16.2762 8.09211 15.644C8.09211 15.0118 8.62452 14.4793 9.25676 14.4793C9.889 14.4793 10.4214 15.0118 10.4214 15.644C10.4214 16.2762 9.889 16.8087 9.25676 16.8087Z" fill="#8646F4"/>
<path d="M0.801952 6.26029C0.868504 7.72442 2.16626 8.32338 2.83177 8.32338H5.16108C5.19435 8.32338 5.19435 8.32338 5.19435 8.32338C6.19262 8.25683 7.1909 7.59132 7.1909 6.26029V5.46167C8.289 5.46167 10.818 5.46167 11.9161 5.46167V6.26029C11.9161 7.59132 12.9143 8.25683 13.9126 8.32338H13.9459H16.2419C16.9074 8.32338 18.2052 7.72442 18.2717 6.26029C18.2717 6.16046 18.2717 5.79443 18.2717 5.46167C18.2717 5.19546 18.2717 4.96253 18.2717 4.92926C18.2717 4.89598 18.2717 4.86271 18.2717 4.86271C18.1719 3.93098 17.8391 3.16564 17.2734 2.56668L17.2402 2.5334C16.4083 1.76806 15.41 1.33548 14.6447 1.06927C12.4152 0.204102 9.62003 0.204102 9.48692 0.204102C7.52365 0.237377 6.25918 0.403756 4.36246 1.06927C3.63039 1.3022 2.63212 1.73479 1.80023 2.50013L1.76695 2.5334C1.20126 3.13237 0.868504 3.89771 0.768677 4.82943C0.768677 4.86271 0.768677 4.89598 0.768677 4.89598C0.768677 4.96253 0.768677 5.16219 0.768677 5.42839C0.801953 5.72788 0.801952 6.12718 0.801952 6.26029ZM2.59884 3.33202C3.26436 2.73306 4.09625 2.36702 4.79504 2.10082C6.52538 1.46858 7.65676 1.33548 9.55348 1.3022C9.68658 1.3022 12.2821 1.33548 14.2786 2.10082C14.9774 2.36702 15.8093 2.69978 16.4748 3.33202C16.8409 3.73133 17.0738 4.26374 17.1403 4.89598C17.1403 4.99581 17.1403 5.16219 17.1403 5.42839C17.1403 5.76115 17.1403 6.12718 17.1403 6.22701C17.1071 6.99235 16.375 7.15873 16.2752 7.15873H13.9791C13.6464 7.12546 13.114 6.99235 13.114 6.26029V4.89598C13.114 4.62978 12.9476 4.43012 12.7147 4.33029C12.515 4.26374 6.69176 4.26374 6.49211 4.33029C6.25918 4.39685 6.0928 4.62978 6.0928 4.89598V6.26029C6.0928 6.99235 5.56038 7.12546 5.22763 7.15873H2.9316C2.83177 7.15873 2.09971 6.99235 2.06643 6.22701C2.06643 6.12718 2.06643 5.76115 2.06643 5.42839C2.06643 5.16219 2.06643 5.02908 2.06643 4.92926C1.99988 4.26374 2.23281 3.73133 2.59884 3.33202Z" fill="#8646F4"/>
</svg>
