<svg width="16" height="16" viewBox="0 0 16 16" fill="none" xmlns="http://www.w3.org/2000/svg">
<g opacity="0.4">
<rect width="16" height="16" rx="8" fill="#637381"/>
<path d="M7.0625 9.69922V9.625C7.06771 9.14062 7.11589 8.75521 7.20703 8.46875C7.30078 8.18229 7.43359 7.95052 7.60547 7.77344C7.77734 7.59635 7.98438 7.4349 8.22656 7.28906C8.38281 7.1901 8.52344 7.07943 8.64844 6.95703C8.77344 6.83464 8.8724 6.69401 8.94531 6.53516C9.01823 6.3763 9.05469 6.20052 9.05469 6.00781C9.05469 5.77604 9 5.57552 8.89063 5.40625C8.78125 5.23698 8.63542 5.10677 8.45313 5.01562C8.27344 4.92187 8.07292 4.875 7.85156 4.875C7.65104 4.875 7.45964 4.91667 7.27734 5C7.09505 5.08333 6.94401 5.21354 6.82422 5.39062C6.70443 5.5651 6.63542 5.79036 6.61719 6.06641H5.42969C5.44792 5.59766 5.56641 5.20182 5.78516 4.87891C6.00391 4.55339 6.29297 4.30729 6.65234 4.14062C7.01432 3.97396 7.41406 3.89062 7.85156 3.89062C8.33073 3.89062 8.75 3.98047 9.10938 4.16016C9.46875 4.33724 9.7474 4.58594 9.94531 4.90625C10.1458 5.22396 10.2461 5.59505 10.2461 6.01953C10.2461 6.3112 10.2005 6.57422 10.1094 6.80859C10.0182 7.04036 9.88802 7.2474 9.71875 7.42969C9.55208 7.61198 9.35156 7.77344 9.11719 7.91406C8.89583 8.05208 8.71615 8.19531 8.57813 8.34375C8.44271 8.49219 8.34375 8.66797 8.28125 8.87109C8.21875 9.07422 8.1849 9.32552 8.17969 9.625V9.69922H7.0625ZM7.65234 12.0742C7.4388 12.0742 7.25521 11.9987 7.10156 11.8477C6.94792 11.694 6.87109 11.5091 6.87109 11.293C6.87109 11.0794 6.94792 10.8971 7.10156 10.7461C7.25521 10.5924 7.4388 10.5156 7.65234 10.5156C7.86328 10.5156 8.04557 10.5924 8.19922 10.7461C8.35547 10.8971 8.43359 11.0794 8.43359 11.293C8.43359 11.4362 8.39714 11.5677 8.32422 11.6875C8.25391 11.8047 8.16016 11.8984 8.04297 11.9687C7.92578 12.0391 7.79557 12.0742 7.65234 12.0742Z" fill="white"/>
</g>
</svg>
