<svg width="20" height="20" viewBox="0 0 20 20" fill="none" xmlns="http://www.w3.org/2000/svg">
<path d="M17.5 4.98335C14.725 4.70835 11.9333 4.56668 9.15 4.56668C7.5 4.56668 5.85 4.65001 4.2 4.81668L2.5 4.98335" stroke="#F89090" stroke-width="1.1" stroke-linecap="round" stroke-linejoin="round"/>
<path d="M7.08331 4.14166L7.26665 3.04999C7.39998 2.25832 7.49998 1.66666 8.90831 1.66666H11.0916C12.5 1.66666 12.6083 2.29166 12.7333 3.05832L12.9166 4.14166" stroke="#F89090" stroke-width="1.1" stroke-linecap="round" stroke-linejoin="round"/>
<path d="M15.7084 7.61667L15.1667 16.0083C15.075 17.3167 15 18.3333 12.675 18.3333H7.32502C5.00002 18.3333 4.92502 17.3167 4.83335 16.0083L4.29169 7.61667" stroke="#F89090" stroke-width="1.1" stroke-linecap="round" stroke-linejoin="round"/>
<path d="M8.60834 13.75H11.3833" stroke="#F89090" stroke-width="1.1" stroke-linecap="round" stroke-linejoin="round"/>
<path d="M7.91669 10.4167H12.0834" stroke="#F89090" stroke-width="1.1" stroke-linecap="round" stroke-linejoin="round"/>
</svg>
