<svg width="17" height="12" viewBox="0 0 17 12" fill="none" xmlns="http://www.w3.org/2000/svg">
<path d="M14.447 2.06654L15.4277 0.939335C15.7115 0.634051 15.789 0.399217 15.8148 0.2818C15.0406 0.704501 14.318 0.845401 13.8535 0.845401H13.6728L13.5696 0.751468C12.9502 0.258317 12.176 0 11.3502 0C9.54379 0 8.12444 1.36204 8.12444 2.93542C8.12444 3.02935 8.12444 3.17025 8.15024 3.26419L8.22766 3.73386L7.68572 3.71037C4.3825 3.61644 1.67282 1.03327 1.23411 0.587084C0.511532 1.76125 0.924435 2.88845 1.36314 3.59296L2.24056 4.90802L0.847016 4.20352C0.872822 5.18982 1.28573 5.96477 2.08573 6.52838L2.7825 6.99804L2.08573 7.25636C2.52444 8.45401 3.50508 8.94716 4.22766 9.13503L5.1825 9.36986L4.27927 9.93346C2.83411 10.8728 1.02766 10.8024 0.227661 10.7319C1.85347 11.7652 3.78895 12 5.13089 12C6.13734 12 6.88573 11.9061 7.06637 11.8356C14.2922 10.2857 14.6277 4.41487 14.6277 3.2407V3.07632L14.7825 2.98239C15.6599 2.23092 16.0212 1.8317 16.2277 1.59687C16.1502 1.62035 16.047 1.66732 15.9438 1.6908L14.447 2.06654Z" fill="#212B36"/>
</svg>
