<svg width="10" height="16" viewBox="0 0 10 16" fill="none" xmlns="http://www.w3.org/2000/svg">
<path fill-rule="evenodd" clip-rule="evenodd" d="M5.33333 0.299988C5.44692 0.299974 5.55928 0.323415 5.66339 0.368843C5.76749 0.41427 5.86109 0.480706 5.93833 0.563988L9.51333 4.41399C9.587 4.49344 9.6443 4.58662 9.68196 4.68821C9.71962 4.78981 9.7369 4.89783 9.73282 5.0061C9.72873 5.11437 9.70336 5.22078 9.65815 5.31925C9.61294 5.41772 9.54878 5.50632 9.46933 5.57999C9.38988 5.65366 9.2967 5.71096 9.1951 5.74862C9.09351 5.78628 8.98549 5.80356 8.87722 5.79947C8.76895 5.79539 8.66254 5.77002 8.56407 5.72481C8.4656 5.6796 8.377 5.61544 8.30333 5.53599L5.33333 2.33719L2.36333 5.53599C2.21455 5.69644 2.00811 5.79122 1.78944 5.79947C1.57078 5.80773 1.35779 5.72877 1.19733 5.57999C1.03688 5.4312 0.942096 5.22477 0.933845 5.0061C0.925593 4.78743 1.00454 4.57444 1.15333 4.41399L4.72833 0.563988C4.80557 0.480706 4.89917 0.41427 5.00328 0.368843C5.10738 0.323415 5.21975 0.299974 5.33333 0.299988ZM1.19733 10.42C1.27678 10.3463 1.36996 10.289 1.47155 10.2513C1.57315 10.2137 1.68117 10.1964 1.78945 10.2005C1.89772 10.2046 2.00413 10.2299 2.1026 10.2751C2.20107 10.3204 2.28967 10.3845 2.36333 10.464L5.33333 13.6628L8.30333 10.464C8.45212 10.3035 8.65855 10.2088 8.87722 10.2005C9.09589 10.1922 9.30888 10.2712 9.46933 10.42C9.62979 10.5688 9.72457 10.7752 9.73282 10.9939C9.74107 11.2125 9.66212 11.4255 9.51333 11.586L5.93833 15.436C5.8611 15.5193 5.7675 15.5857 5.6634 15.6312C5.55929 15.6766 5.44692 15.7001 5.33333 15.7001C5.21974 15.7001 5.10737 15.6766 5.00326 15.6312C4.89916 15.5857 4.80556 15.5193 4.72833 15.436L1.15333 11.586C1.07965 11.5065 1.02234 11.4134 0.984677 11.3118C0.947012 11.2102 0.929728 11.1021 0.933814 10.9939C0.9379 10.8856 0.963275 10.7792 1.00849 10.6807C1.0537 10.5823 1.11787 10.4937 1.19733 10.42Z" fill="#637381"/>
</svg>
