<svg width="28" height="26" viewBox="0 0 28 26" fill="none" xmlns="http://www.w3.org/2000/svg">
<path d="M20.744 17.1947C21.3677 16.7687 22.0993 16.5281 22.854 16.5006C23.6088 16.4731 24.356 16.6598 25.009 17.0392C25.6621 17.4186 26.1944 17.9752 26.5444 18.6445C26.8944 19.3138 27.0477 20.0685 26.9866 20.8213C25.3869 21.3804 23.6876 21.598 21.9986 21.46C21.9934 19.9488 21.5583 18.469 20.744 17.196C20.0212 16.0624 19.0241 15.1294 17.8451 14.4833C16.666 13.8373 15.3431 13.4991 13.9986 13.5C12.6544 13.4993 11.3317 13.8376 10.1529 14.4836C8.97414 15.1297 7.97731 16.0626 7.25464 17.196M21.9973 21.4586L21.9986 21.5C21.9986 21.8 21.9826 22.096 21.9493 22.388C19.5298 23.7761 16.7881 24.5044 13.9986 24.5C11.1053 24.5 8.3893 23.732 6.04797 22.388C6.01369 22.0794 5.99722 21.7691 5.99864 21.4586M5.99864 21.4586C4.31014 21.6017 2.61185 21.3849 1.01331 20.8227C0.952444 20.0701 1.10583 19.3156 1.45575 18.6465C1.80566 17.9774 2.3378 17.421 2.99064 17.0417C3.64349 16.6623 4.39037 16.4755 5.14493 16.5028C5.89949 16.5301 6.63092 16.7704 7.25464 17.196M5.99864 21.4586C6.00343 19.9476 6.4408 18.4691 7.25464 17.196M17.9986 5.5C17.9986 6.56086 17.5772 7.57828 16.8271 8.32842C16.0769 9.07857 15.0595 9.49999 13.9986 9.49999C12.9378 9.49999 11.9204 9.07857 11.1702 8.32842C10.4201 7.57828 9.99863 6.56086 9.99863 5.5C9.99863 4.43913 10.4201 3.42172 11.1702 2.67157C11.9204 1.92143 12.9378 1.5 13.9986 1.5C15.0595 1.5 16.0769 1.92143 16.8271 2.67157C17.5772 3.42172 17.9986 4.43913 17.9986 5.5ZM25.9986 9.49999C25.9986 9.89396 25.921 10.2841 25.7703 10.648C25.6195 11.012 25.3985 11.3427 25.1199 11.6213C24.8414 11.8999 24.5106 12.1209 24.1467 12.2716C23.7827 12.4224 23.3926 12.5 22.9986 12.5C22.6047 12.5 22.2145 12.4224 21.8506 12.2716C21.4866 12.1209 21.1559 11.8999 20.8773 11.6213C20.5987 11.3427 20.3777 11.012 20.227 10.648C20.0762 10.2841 19.9986 9.89396 19.9986 9.49999C19.9986 8.70434 20.3147 7.94128 20.8773 7.37867C21.4399 6.81607 22.203 6.5 22.9986 6.5C23.7943 6.5 24.5573 6.81607 25.1199 7.37867C25.6825 7.94128 25.9986 8.70434 25.9986 9.49999ZM7.99864 9.49999C7.99864 9.89396 7.92104 10.2841 7.77028 10.648C7.61951 11.012 7.39853 11.3427 7.11996 11.6213C6.84138 11.8999 6.51066 12.1209 6.14669 12.2716C5.78271 12.4224 5.3926 12.5 4.99864 12.5C4.60467 12.5 4.21457 12.4224 3.85059 12.2716C3.48661 12.1209 3.1559 11.8999 2.87732 11.6213C2.59874 11.3427 2.37777 11.012 2.227 10.648C2.07624 10.2841 1.99864 9.89396 1.99864 9.49999C1.99864 8.70434 2.31471 7.94128 2.87732 7.37867C3.43993 6.81607 4.20299 6.5 4.99864 6.5C5.79429 6.5 6.55735 6.81607 7.11996 7.37867C7.68257 7.94128 7.99864 8.70434 7.99864 9.49999Z" stroke="white" stroke-width="1.7" stroke-linecap="round" stroke-linejoin="round"/>
</svg>
