<svg width="20" height="20" viewBox="0 0 20 20" fill="none" xmlns="http://www.w3.org/2000/svg">
<path d="M6.98333 10L8.99167 12.0167L13.0167 7.98334" stroke="#8899A8" stroke-width="1.5" stroke-linecap="round" stroke-linejoin="round"/>
<path d="M8.95833 2.04166C9.53333 1.55 10.475 1.55 11.0583 2.04166L12.375 3.175C12.625 3.39166 13.0917 3.56666 13.425 3.56666H14.8417C15.725 3.56666 16.45 4.29166 16.45 5.175V6.59166C16.45 6.91666 16.625 7.39166 16.8417 7.64166L17.975 8.95833C18.4667 9.53333 18.4667 10.475 17.975 11.0583L16.8417 12.375C16.625 12.625 16.45 13.0917 16.45 13.425V14.8417C16.45 15.725 15.725 16.45 14.8417 16.45H13.425C13.1 16.45 12.625 16.625 12.375 16.8417L11.0583 17.975C10.4833 18.4667 9.54167 18.4667 8.95833 17.975L7.64167 16.8417C7.39167 16.625 6.925 16.45 6.59167 16.45H5.15C4.26667 16.45 3.54167 15.725 3.54167 14.8417V13.4167C3.54167 13.0917 3.36667 12.625 3.15833 12.375L2.03333 11.05C1.55 10.475 1.55 9.54166 2.03333 8.96666L3.15833 7.64166C3.36667 7.39166 3.54167 6.925 3.54167 6.6V5.16666C3.54167 4.28333 4.26667 3.55833 5.15 3.55833H6.59167C6.91667 3.55833 7.39167 3.38333 7.64167 3.16666L8.95833 2.04166Z" stroke="#8899A8" stroke-width="1.5" stroke-linecap="round" stroke-linejoin="round"/>
</svg>
