<svg width="17" height="12" viewBox="0 0 17 12" fill="none" xmlns="http://www.w3.org/2000/svg">
<path d="M15.8922 1.88018C15.7115 1.13364 15.1696 0.552995 14.4728 0.359447C13.2341 6.59222e-08 8.22766 0 8.22766 0C8.22766 0 3.22121 6.59222e-08 1.9825 0.359447C1.28573 0.552995 0.74379 1.13364 0.563145 1.88018C0.227661 3.23502 0.227661 6 0.227661 6C0.227661 6 0.227661 8.79263 0.563145 10.1198C0.74379 10.8664 1.28573 11.447 1.9825 11.6406C3.22121 12 8.22766 12 8.22766 12C8.22766 12 13.2341 12 14.4728 11.6406C15.1696 11.447 15.7115 10.8664 15.8922 10.1198C16.2277 8.79263 16.2277 6 16.2277 6C16.2277 6 16.2277 3.23502 15.8922 1.88018ZM6.62766 8.57143V3.42857L10.7825 6L6.62766 8.57143Z" fill="#212B36"/>
</svg>
